# xmcd CD database file
#
# Track frame offsets:
#	150
#	15601
#	37196
#	48650
#	71318
#	89410
#	107882
#	126691
#	138221
#	152945
#	165500
#
# Disc length: 2440 seconds
#
# Revision: 0
# Processed by: cddbd v1.5.2PL0 Copyright (c) Steve Scherf et al.
# Submitted via: CDex 1.77
#
DISCID=9a09860b
DTITLE=Owen Campbell - Pilgrim
DYEAR=2014
DGENRE=Blues
TTITLE0=Wrecking Ball
TTITLE1=Leave It Alone
TTITLE2=You Know I'm Gone
TTITLE3=Cried For Yesterday
TTITLE4=It Don't Mean A Thing
TTITLE5=Dev'lish Woman
TTITLE6=Remember To Breathe
TTITLE7=Bukhu's Blues
TTITLE8=New Years Eve
TTITLE9=Highway Bound
TTITLE10=A Better Place
EXTD=YEAR: 2014
EXTT0=
EXTT1=
EXTT2=
EXTT3=
EXTT4=
EXTT5=
EXTT6=
EXTT7=
EXTT8=
EXTT9=
EXTT10=
PLAYORDER=
